<svg height="2000" version="1.1" width="2000" xmlns="http://www.w3.org/2000/svg" xmlns:xlink="http://www.w3.org/1999/xlink" id="svg" style="overflow: hidden; position: absolute; left: 0px; top: 0px; stroke: rgb(85, 0, 0); stroke-width: 3px;"><desc style="-webkit-tap-highlight-color: rgba(0, 0, 0, 0);">Created with Raphaël 2.1.4</desc><defs style="-webkit-tap-highlight-color: rgba(0, 0, 0, 0);"></defs><circle cx="200" cy="200" r="150" fill="none" stroke="#000" style="-webkit-tap-highlight-color: rgba(0, 0, 0, 0); stroke: rgb(85, 0, 0); stroke-width: 3px;" transform="matrix(4,0,0,4,150,450)" stroke-width="0.25"></circle><path fill="none" stroke="#000000" d="M200.5,50V350Z" style="-webkit-tap-highlight-color: rgba(0, 0, 0, 0); stroke: rgb(85, 0, 0); stroke-width: 3px;" transform="matrix(4,0,0,4,150,450)" stroke-width="0.25"></path><path fill="none" stroke="#000000" d="M50,200.5H350Z" style="-webkit-tap-highlight-color: rgba(0, 0, 0, 0); stroke: rgb(85, 0, 0); stroke-width: 3px;" transform="matrix(4,0,0,4,150,450)" stroke-width="0.25"></path><path fill="none" stroke="#000000" d="M94,94L306,306Z" style="-webkit-tap-highlight-color: rgba(0, 0, 0, 0); stroke: rgb(85, 0, 0); stroke-width: 3px;" transform="matrix(4,0,0,4,150,450)" stroke-width="0.25"></path><path fill="none" stroke="#000000" d="M94,306L306,94Z" style="-webkit-tap-highlight-color: rgba(0, 0, 0, 0); stroke: rgb(85, 0, 0); stroke-width: 3px;" transform="matrix(4,0,0,4,150,450)" stroke-width="0.25"></path><path fill="none" stroke="#000000" d="M94.5,94.5H306Z" style="-webkit-tap-highlight-color: rgba(0, 0, 0, 0); stroke: rgb(85, 0, 0); stroke-width: 3px;" transform="matrix(4,0,0,4,150,450)" stroke-width="0.25"></path><path fill="none" stroke="#000000" d="M94,306.5H306Z" style="-webkit-tap-highlight-color: rgba(0, 0, 0, 0); stroke: rgb(85, 0, 0); stroke-width: 3px;" transform="matrix(4,0,0,4,150,450)" stroke-width="0.25"></path><path fill="none" stroke="#000000" d="M94.5,94.5V306Z" style="-webkit-tap-highlight-color: rgba(0, 0, 0, 0); stroke: rgb(85, 0, 0); stroke-width: 3px;" transform="matrix(4,0,0,4,150,450)" stroke-width="0.25"></path><path fill="none" stroke="#000000" d="M306.5,94V306Z" style="-webkit-tap-highlight-color: rgba(0, 0, 0, 0); stroke: rgb(85, 0, 0); stroke-width: 3px;" transform="matrix(4,0,0,4,150,450)" stroke-width="0.25"></path><path fill="none" stroke="#000000" d="M253,253L350,200Z" style="-webkit-tap-highlight-color: rgba(0, 0, 0, 0); stroke: rgb(85, 0, 0); stroke-width: 3px;" transform="matrix(4,0,0,4,150,450)" stroke-width="0.25"></path><path fill="none" stroke="#000000" d="M94.5,96.615L94.5,303.885Z" class="highlight" style="-webkit-tap-highlight-color: rgba(0, 0, 0, 0); stroke: rgb(0, 0, 0); stroke-width: 20px; stroke-linejoin: round;" transform="matrix(4,0,0,4,150,450)" stroke-width="0.25"></path><path fill="none" stroke="#000000" d="M96.615,94.5L198.135,94.5Z" class="highlight" style="-webkit-tap-highlight-color: rgba(0, 0, 0, 0); stroke: rgb(0, 0, 0); stroke-width: 20px; stroke-linejoin: round;" transform="matrix(4,0,0,4,150,450)" stroke-width="0.25"></path><path fill="none" stroke="#000000" d="M96.8,200.5L167,200.5Z" class="highlight" style="-webkit-tap-highlight-color: rgba(0, 0, 0, 0); stroke: rgb(0, 0, 0); stroke-width: 20px; stroke-linejoin: round;" transform="matrix(4,0,0,4,150,450)" stroke-width="0.25"></path><path fill="none" stroke="#000000" d="M200.5,203L200.5,302.9Z" class="highlight" style="-webkit-tap-highlight-color: rgba(0, 0, 0, 0); stroke: rgb(0, 0, 0); stroke-width: 20px; stroke-linejoin: round;" transform="matrix(4,0,0,4,150,450)" stroke-width="0.25"></path><path fill="none" stroke="#000000" d="M307.1213564155159,305.0000714271186A150,150,0,0,0,349.9925000624998,201.499975000125A150,150,0,0,1,307.1213564155159,305.0000714271186A150,150,0,0,0,349.9925000624998,201.499975000125" class="highlight" style="-webkit-tap-highlight-color: rgba(0, 0, 0, 0); stroke: rgb(0, 0, 0); stroke-width: 20px; stroke-linejoin: round;" transform="matrix(4,0,0,4,150,450)" stroke-width="0.25"></path><path fill="none" stroke="#000000" d="M202.12,202.12L250.88,250.88Z" class="highlight" style="-webkit-tap-highlight-color: rgba(0, 0, 0, 0); stroke: rgb(0, 0, 0); stroke-width: 20px; stroke-linejoin: round;" transform="matrix(4,0,0,4,150,450)" stroke-width="0.25"></path><path fill="none" stroke="#000000" d="M253.97,252.47L349.03,200.53Z" class="highlight" style="-webkit-tap-highlight-color: rgba(0, 0, 0, 0); stroke: rgb(0, 0, 0); stroke-width: 20px; stroke-linejoin: round;" transform="matrix(4,0,0,4,150,450)" stroke-width="0.25"></path><path fill="#000000" stroke="#000000" d="M74.08,169H53.4C42.69,169,33.98,160.288,33.98,149.57999999999998V123.87999999999998H39.437999999999995V149.57999999999998C39.437999999999995,157.279,45.70099999999999,163.54,53.397999999999996,163.54H74.078V168.94Z" stroke-width="0" stroke-opacity="1" transform="matrix(12,0,0,12,-192,-300)" class="blank" style="-webkit-tap-highlight-color: rgba(0, 0, 0, 0); stroke-opacity: 1;"></path><path fill="#a7a9ac" stroke="#000000" d="M163.4,114.9H157.942V83C157.942,54.81,135.002,31.869999999999997,106.81200000000001,31.869999999999997H93.18200000000002C64.99200000000002,31.869999999999997,42.052000000000014,54.81,42.052000000000014,83V114.91H36.594000000000015V83.00999999999999C36.594000000000015,51.80999999999999,61.984000000000016,26.429999999999993,93.18400000000003,26.429999999999993H106.84400000000002C138.044,26.429999999999993,163.42400000000004,51.80999999999999,163.42400000000004,83.00999999999999V114.91Z" stroke-width="0" stroke-opacity="1" transform="matrix(12,0,0,12,-192,-300)" class="blank" style="-webkit-tap-highlight-color: rgba(0, 0, 0, 0); stroke-opacity: 1;"></path><rect x="33.98" y="77.5" width="10.67" height="27.29" rx="0" ry="0" fill="#000000" stroke="#000" stroke-width="0" stroke-opacity="1" transform="matrix(12,0,0,12,-192,-300)" class="blank" style="-webkit-tap-highlight-color: rgba(0, 0, 0, 0); stroke-opacity: 1;"></rect><rect x="155.4" y="77.5" width="10.67" height="27.29" rx="0" ry="0" fill="#000000" stroke="#000" stroke-width="0" stroke-opacity="1" transform="matrix(12,0,0,12,-192,-300)" class="blank" style="-webkit-tap-highlight-color: rgba(0, 0, 0, 0); stroke-opacity: 1;"></rect><path fill="#414042" stroke="#000000" d="M49.56,89.75C36,89.75,25.000000000000004,103.22,25.000000000000004,119.83S36,149.91,49.56,149.91V89.75999999999999Z" stroke-width="0" stroke-opacity="1" transform="matrix(12,0,0,12,-192,-300)" class="blank" style="-webkit-tap-highlight-color: rgba(0, 0, 0, 0); stroke-opacity: 1;"></path><path fill="#58595b" stroke="#000000" d="M49.56,89.75C36,89.75,25.000000000000004,103.22,25.000000000000004,119.83H49.56V89.78Z" stroke-width="0" stroke-opacity="1" transform="matrix(12,0,0,12,-192,-300)" class="blank" style="-webkit-tap-highlight-color: rgba(0, 0, 0, 0); stroke-opacity: 1;"></path><path fill="#000000" stroke="#000000" d="M54.47,149.3C54.47,150.812,53.233,152.05100000000002,51.72,152.05100000000002H47.397C45.885999999999996,152.05100000000002,44.647,150.812,44.647,149.3V90.37C44.647,88.85600000000001,45.885999999999996,87.617,47.397,87.617H51.72C53.234,87.617,54.47,88.85600000000001,54.47,90.37V149.3Z" stroke-width="0" stroke-opacity="1" transform="matrix(12,0,0,12,-192,-300)" class="blank" style="-webkit-tap-highlight-color: rgba(0, 0, 0, 0); stroke-opacity: 1;"></path><path fill="#414042" stroke="#000000" d="M150.4,89.75C163.96,89.75,174.96,103.22,174.96,119.83S163.96,149.91,150.4,149.91V89.75999999999999Z" stroke-width="0" stroke-opacity="1" transform="matrix(12,0,0,12,-192,-300)" class="blank" style="-webkit-tap-highlight-color: rgba(0, 0, 0, 0); stroke-opacity: 1;"></path><path fill="#58595b" stroke="#000000" d="M150.4,89.75C163.96,89.75,174.96,103.22,174.96,119.83H150.4V89.78Z" stroke-width="0" stroke-opacity="1" transform="matrix(12,0,0,12,-192,-300)" class="blank" style="-webkit-tap-highlight-color: rgba(0, 0, 0, 0); stroke-opacity: 1;"></path><path fill="#000000" stroke="#000000" d="M145.5,149.3C145.5,150.812,146.739,152.05100000000002,148.25,152.05100000000002H152.572C154.087,152.05100000000002,155.323,150.812,155.323,149.3V90.37C155.323,88.85600000000001,154.08700000000002,87.617,152.572,87.617H148.25C146.739,87.617,145.5,88.85600000000001,145.5,90.37V149.3Z" stroke-width="0" stroke-opacity="1" transform="matrix(12,0,0,12,-192,-300)" class="blank" style="-webkit-tap-highlight-color: rgba(0, 0, 0, 0); stroke-opacity: 1;"></path><path fill="#58595b" stroke="#000000" d="M91.13,166.3C91.13,170.31900000000002,87.874,173.57500000000002,83.853,173.57500000000002H71.803C67.78399999999999,173.57500000000002,64.52499999999999,170.318,64.52499999999999,166.3C64.52499999999999,162.27900000000002,67.78399999999999,159.02200000000002,71.803,159.02200000000002H83.853C87.883,159.02200000000002,91.133,162.32200000000003,91.133,166.32200000000003Z" stroke-width="0" stroke-opacity="1" transform="matrix(12,0,0,12,-192,-300)" class="blank" style="-webkit-tap-highlight-color: rgba(0, 0, 0, 0); stroke-opacity: 1;"></path></svg> 
